# Blender 3.6.1
# www.blender.org
mtllib saaaa.mtl
o Vert
v 0.045000 -0.184456 -0.056250
v 0.045000 -0.052006 0.033750
v 0.038250 -0.055868 0.027680
v 0.011579 -0.022456 0.008887
v 0.038250 -0.033069 0.008555
v 0.011579 -0.022456 -0.008887
v 0.038250 -0.033069 -0.010570
v 0.045000 -0.094456 -0.056250
v 0.038250 -0.091569 -0.048820
v -0.045000 -0.184456 -0.056250
v -0.045000 -0.052006 0.033750
v -0.038250 -0.055868 0.027680
v -0.011579 -0.022456 0.008887
v -0.038250 -0.033069 0.008555
v -0.038250 -0.033069 -0.010570
v -0.011579 -0.022456 -0.008887
v -0.045000 -0.094456 -0.056250
v -0.038250 -0.091569 -0.048820
v 0.045000 -0.022456 0.011250
v 0.045000 -0.022456 -0.011250
v -0.045000 -0.022456 0.011250
v -0.045000 -0.022456 -0.011250
v 0.011579 0.000000 0.008887
v 0.011579 0.000000 -0.008887
v -0.011579 0.000000 0.008887
v -0.011579 0.000000 -0.008887
vn 1.0000 -0.0000 -0.0000
vn -1.0000 -0.0000 -0.0000
vn -0.0000 -0.0000 -1.0000
vn -0.0000 0.5300 -0.8480
vn -0.0000 0.6058 0.7956
vn -0.0000 -0.8437 0.5369
vn 0.3889 -0.5178 0.7620
vn -0.0000 -0.0000 1.0000
vn -0.9985 -0.0496 0.0232
vn 0.9985 -0.0496 0.0232
vn -0.0000 -0.6427 -0.7661
vn -0.0000 -1.0000 -0.0000
vn -0.0000 -0.5472 0.8370
vn -0.0000 -0.0797 0.9968
vn -0.3889 -0.5178 0.7620
vn -0.0000 1.0000 -0.0000
s 0
f 2//1 1//1 8//1 20//1 19//1
f 11//2 21//2 22//2 17//2 10//2
f 1//3 10//3 17//3 8//3
f 8//4 17//4 22//4 20//4
f 19//5 21//5 11//5 2//5
f 3//6 2//6 11//6 12//6
f 11//7 10//7 12//7
f 13//8 4//8 23//8 25//8
f 1//15 2//15 3//15
f 6//16 4//16 19//16 20//16
f 13//16 16//16 22//16 21//16
f 16//16 6//16 20//16 22//16
f 4//16 13//16 21//16 19//16
f 24//16 26//16 25//16 23//16
f 16//2 13//2 25//2 26//2
f 6//3 16//3 26//3 24//3
f 4//1 6//1 24//1 23//1
f 3//9 5//9 7//9 9//9 1//9
f 14//10 12//10 10//10 18//10 15//10
f 14//11 5//11 3//11 12//11
f 14//12 15//12 7//12 5//12
f 15//13 18//13 9//13 7//13
f 1//14 9//14 18//14 10//14
