# Blender v3.6.1 OBJ File: 'untitled.blend'
# www.blender.org
mtllib shovel.mtl
o Vert
v 0.098533 -0.250827 -0.082663
v 0.098533 0.043507 0.117337
v 0.083533 0.034923 0.103848
v 0.098533 0.109173 0.067337
v 0.083533 0.085589 0.061348
v 0.098533 0.109173 0.017337
v 0.083533 0.085589 0.018848
v 0.098533 -0.050827 -0.082663
v 0.083533 -0.044411 -0.066152
v -0.101467 -0.250827 -0.082663
v -0.101467 0.043507 0.117337
v -0.086467 0.034923 0.103848
v -0.101467 0.109173 0.067337
v -0.086467 0.085589 0.061348
v -0.086467 0.085589 0.018848
v -0.101467 0.109173 0.017337
v -0.101467 -0.050827 -0.082663
v -0.086467 -0.044411 -0.066152
v 0.036712 0.109173 0.065311
v 0.036712 0.160697 0.065311
v -0.039646 0.109173 0.065311
v -0.039646 0.160697 0.065311
v 0.036712 0.109173 0.019363
v 0.036712 0.160697 0.019363
v -0.039646 0.109173 0.019363
v -0.039646 0.160697 0.019363
vt 0.000000 0.000000
vt 0.000000 0.000000
vt 0.000000 0.000000
vt 0.000000 0.000000
vt 0.000000 0.000000
vt 0.000000 0.000000
vt 0.000000 0.000000
vt 0.000000 0.000000
vt 0.000000 0.000000
vt 0.000000 0.000000
vt 0.000000 0.000000
vt 0.000000 0.000000
vt 1.000000 0.000000
vt 1.000000 1.000000
vt 0.000000 1.000000
vt 0.000000 0.000000
vt 0.000000 0.000000
vt 0.000000 0.000000
vt 0.000000 0.000000
vt 0.000000 0.000000
vt 0.000000 0.000000
vt 0.375000 0.000000
vt 0.625000 0.000000
vt 0.625000 0.250000
vt 0.375000 0.250000
vt 0.625000 0.500000
vt 0.375000 0.500000
vt 0.625000 0.750000
vt 0.375000 0.750000
vt 0.625000 1.000000
vt 0.375000 1.000000
vt 0.125000 0.500000
vt 0.125000 0.750000
vt 0.875000 0.500000
vt 0.875000 0.750000
vn 1.0000 0.0000 0.0000
vn -1.0000 0.0000 -0.0000
vn 0.0000 0.0000 -1.0000
vn 0.0000 0.5300 -0.8480
vn -0.0000 0.6058 0.7956
vn -0.0000 -0.8437 0.5369
vn 0.3889 -0.5178 0.7620
vn 0.0000 1.0000 0.0000
vn -0.9985 -0.0496 0.0232
vn 0.9985 -0.0496 0.0232
vn 0.0000 -0.6427 -0.7661
vn 0.0000 -1.0000 0.0000
vn -0.0000 -0.5472 0.8370
vn -0.0000 -0.0797 0.9968
vn -0.3889 -0.5178 0.7620
vn 0.0000 0.0000 1.0000
usemtl None
s off
f 2/1/1 1/2/1 8/3/1 6/4/1 4/5/1
f 11/6/2 13/7/2 16/8/2 17/9/2 10/10/2
f 1/2/3 10/10/3 17/9/3 8/3/3
f 8/3/4 17/9/4 16/8/4 6/4/4
f 4/5/5 13/7/5 11/6/5 2/1/5
f 3/11/6 2/1/6 11/6/6 12/12/6
f 11/6/7 10/10/7 12/12/7
f 6/4/8 16/13/8 13/14/8 4/15/8
f 3/11/9 5/16/9 7/17/9 9/18/9 1/2/9
f 14/19/10 12/12/10 10/10/10 18/20/10 15/21/10
f 14/19/11 5/16/11 3/11/11 12/12/11
f 14/19/12 15/21/12 7/17/12 5/16/12
f 15/21/13 18/20/13 9/18/13 7/17/13
f 1/2/14 9/18/14 18/20/14 10/10/14
f 1/2/15 2/1/15 3/11/15
f 19/22/16 20/23/16 22/24/16 21/25/16
f 21/25/2 22/24/2 26/26/2 25/27/2
f 25/27/3 26/26/3 24/28/3 23/29/3
f 23/29/1 24/28/1 20/30/1 19/31/1
f 21/32/12 25/27/12 23/29/12 19/33/12
f 26/26/8 22/34/8 20/35/8 24/28/8
